<svg width="64" height="64" viewBox="0 0 6.656 9.297" xmlns="http://www.w3.org/2000/svg"><g style="fill:#000;fill-opacity:1"><path style="fill:#000;fill-opacity:1;stroke:none" d="M5.72.391C5.8.251 5.8.235 5.8.203 5.799.125 5.737 0 5.596 0c-.11 0-.14.063-.218.204L.908 8.907c-.077.14-.077.156-.077.187 0 .078.062.203.187.203s.156-.062.219-.203zm0 0"/><path style="fill:#000;fill-opacity:1;stroke:none" d="M6.643 3.813c0-.219-.062-.328-.14-.328-.047 0-.141.078-.141.265-.047.954-.703 1.5-1.406 1.5-.625 0-1.094-.421-1.594-.843-.5-.47-1.016-.922-1.703-.922-1.078 0-1.672 1.094-1.672 2 0 .328.125.328.14.328.11 0 .14-.203.14-.234.048-1.094.782-1.532 1.39-1.532.627 0 1.11.422 1.596.844.515.469 1.03.922 1.703.922 1.093 0 1.687-1.094 1.687-2zm0 0"/></g></svg>