<svg width="64" height="64" viewBox="0 0 13.494 3.734" xmlns="http://www.w3.org/2000/svg"><path style="opacity:1;fill:#000;fill-opacity:1;stroke:none;paint-order:stroke fill markers" d="M155.138 129.644c.156 0 .39 0 .39-.25 0-.234-.234-.234-.39-.234h-1.845c.515-.5.875-1.266.875-1.422 0-.203-.219-.203-.344-.203-.188 0-.297 0-.36.14-.109.297-.421 1.016-1.328 1.5-.109.078-.187.11-.187.219 0 .094.047.156.125.203.313.156.969.516 1.375 1.485.078.171.125.187.375.187.125 0 .344 0 .344-.203 0-.14-.36-.922-.875-1.422zM160.119 129.597c.171 0 .343 0 .343-.203 0-.188-.172-.188-.343-.188h-2.642c-.172 0-.344 0-.344.188 0 .203.172.203.344.203zM165.101 129.597c.171 0 .343 0 .343-.203 0-.188-.172-.188-.343-.188h-2.642c-.172 0-.344 0-.344.188 0 .203.172.203.344.203zm0 0" transform="translate(-151.95 -127.535)"/></svg>