<svg width="64" height="64" viewBox="0 0 6.656 9.297" xmlns="http://www.w3.org/2000/svg"><g style="fill:#000;fill-opacity:1"><path style="fill:#000;fill-opacity:1;stroke:none" d="M5.722.391C5.8.251 5.8.235 5.8.203 5.8.125 5.738 0 5.597 0c-.11 0-.14.063-.218.204L.909 8.907c-.077.14-.077.156-.077.187 0 .078.062.203.187.203s.156-.062.219-.203zm0 0"/><path style="fill:#000;fill-opacity:1;stroke:none" d="M6.285 2.907c.172 0 .36 0 .36-.188 0-.203-.188-.203-.36-.203H.33c-.157 0-.344 0-.344.203 0 .188.203.188.36.188zm0 3.875c.172 0 .36 0 .36-.204 0-.187-.188-.187-.36-.187H.347c-.156 0-.36 0-.36.188 0 .203.188.203.345.203zm0-1.938c.172 0 .36 0 .36-.203 0-.188-.188-.188-.36-.188H.33c-.157 0-.344 0-.344.188 0 .203.187.203.344.203zm0 0"/></g></svg>